<?xml version="1.0" encoding="UTF-8" standalone="no"?>
<svg
   xmlns="http://www.w3.org/2000/svg"
   xmlns:svg="http://www.w3.org/2000/svg"
   xmlns:oryx="http://www.b3mn.org/oryx"
   xmlns:xlink="http://www.w3.org/1999/xlink"

   width="102"
   height="82"
   version="1.0">
  <defs></defs>
  <oryx:magnets>
  	<oryx:magnet oryx:cx="1" oryx:cy="20" oryx:anchors="left" />
  	<oryx:magnet oryx:cx="1" oryx:cy="40" oryx:anchors="left" />
  	<oryx:magnet oryx:cx="1" oryx:cy="60" oryx:anchors="left" />
  	
  	<oryx:magnet oryx:cx="25" oryx:cy="79" oryx:anchors="bottom" />
  	<oryx:magnet oryx:cx="50" oryx:cy="79" oryx:anchors="bottom" />
  	<oryx:magnet oryx:cx="75" oryx:cy="79" oryx:anchors="bottom" />
  	
  	<oryx:magnet oryx:cx="99" oryx:cy="20" oryx:anchors="right" />
  	<oryx:magnet oryx:cx="99" oryx:cy="40" oryx:anchors="right" />
  	<oryx:magnet oryx:cx="99" oryx:cy="60" oryx:anchors="right" />
  	
  	<oryx:magnet oryx:cx="25" oryx:cy="1" oryx:anchors="top" />
  	<oryx:magnet oryx:cx="50" oryx:cy="1" oryx:anchors="top" />
  	<oryx:magnet oryx:cx="75" oryx:cy="1" oryx:anchors="top" />
  	
  	<oryx:magnet oryx:cx="50" oryx:cy="40" oryx:default="yes" />
  </oryx:magnets>
  <g pointer-events="fill" oryx:minimumSize="50 40">
  	<defs>
		<radialGradient id="background" cx="10%" cy="10%" r="100%" fx="10%" fy="10%">
			<stop offset="0%" stop-color="#ffffff" stop-opacity="1"/>
			<stop id="fill_el" offset="100%" stop-color="#ffffcc" stop-opacity="1"/>
		</radialGradient>
	</defs>
	
	<rect id="text_frame" oryx:anchors="bottom top right left" x="1" y="1" width="94" height="79" rx="10" ry="10" stroke="none" stroke-width="0" fill="none" />
	<rect id="bg_frame" oryx:resize="vertical horizontal" x="0" y="0" width="100" height="80" rx="10" ry="10" stroke="black" stroke-width="1" fill="url(#background) #ffffcc" />
		<text 
			font-size="12" 
			id="text_name" 
			x="50" 
			y="40" 
			oryx:align="middle center"
			oryx:fittoelem="text_frame"
			stroke="black">
		</text>
    <g id="jenkinsTask" transform="matrix(0.11988411,0,0,-0.11988411,5.8200989,22.851293)" style="display:inline">
      <path oryx:anchors="top left"
         d="m 107.96462,30.661159 -12.506325,-1.875855 -16.882882,-1.875855 -10.942987,-0.31233 -10.629344,0.31233 -8.129205,2.501453 -7.190902,7.815749 -5.627564,15.944766 -1.250445,3.43938 -7.50342,2.500515 -4.37712,7.191089 -3.126299,10.317202 3.439567,9.066945 8.128079,2.813782 6.565493,-3.12705 3.12705,-6.877822 3.751709,0.625598 1.25007,1.562587 -1.25007,7.19109 -0.313267,9.066944 1.875854,12.505383 -0.07325,7.14326 5.700817,9.11384 10.004685,7.19109 17.508479,7.50342 19.383396,-2.81378 16.882691,-12.19306 7.81669,-12.50539 5.00196,-9.06694 1.25026,-22.510259 -3.75171,-19.384147 -6.87782,-17.195024 -6.56549,-9.066944"
         id="path28"
         style="fill:#f0d6b7;fill-opacity:1;fill-rule:evenodd;stroke:none" />
      <path oryx:anchors="top left"
         d="m 42,35.05 -7.825,-3.15 -25,-17.175 1.55,-5 3.325,-9.825 56.15,0 -1.625,2 -3.75,16.25 L 61.7,19.1 54.825,21.275 48.875,26.6 42,35.05 z M 78.575,0.95 75.55,-0.1 l 2.475,0 0.55,1.05 z"
         id="path30"
         style="fill:#335061;fill-opacity:1;fill-rule:evenodd;stroke:none" />
      <path oryx:anchors="top left"
         d="m 23.237694,85.686548 8.128079,2.813782 6.565493,-3.12705 3.12705,-6.877822 3.751709,0.625598 0.937928,3.75171 -1.875855,7.190151 1.875855,17.195963 -1.563713,9.37927 5.627565,6.5655 12.193057,9.6916 -3.439193,4.68964 -17.195211,-8.44135 -7.190902,-5.62756 -4.064227,-8.75368 -6.252975,-8.44135 -1.875855,-10.00487 1.251195,-10.629532"
         id="path32"
         style="fill:#6d6b6d;fill-opacity:1;fill-rule:evenodd;stroke:none" />
      <path oryx:anchors="top left"
         d="m 36.055411,115.07463 c 0,0 4.689637,11.56746 23.448186,17.19502 18.758548,5.62757 0.937927,4.06498 0.937927,4.06498 l -20.321136,-7.81669 -7.816687,-7.81575 -3.438442,-6.25316 7.190152,0.6256"
         id="path34"
         style="fill:#dcd9d8;fill-opacity:1;fill-rule:evenodd;stroke:none" />
      <path oryx:anchors="top left"
         d="m 26.676136,87.874733 c 0,0 -6.565492,21.885597 18.446032,25.011707 l -0.937928,3.75171 -17.194836,-4.06497 -5.002905,-16.2571 1.251195,-10.629532 3.438442,2.188185"
         id="path36"
         style="fill:#dcd9d8;fill-opacity:1;fill-rule:evenodd;stroke:none" />
      <path oryx:anchors="top left"
         d="m 36.680821,58.798982 4.093584,3.966495 c 0,0 1.847623,-0.214785 2.159765,-2.40297 0.312143,-2.189123 1.25007,-21.885599 14.693572,-32.516068 1.226246,-0.969817 -10.003934,1.564463 -10.003934,1.564463 L 37.618748,45.0424"
         id="path38"
         style="fill:#f7e4cd;fill-opacity:1;fill-rule:evenodd;stroke:none" />
      <path oryx:anchors="top left"
         d="m 94.208975,64.738876 c 0,0 0.72877,9.476819 3.280871,8.74805 2.552104,-0.72877 2.552104,-3.28087 2.552104,-3.28087 0,0 -6.197828,-4.00964 -5.832975,-5.46718"
         id="path40"
         style="fill:#f7e4cd;fill-opacity:1;fill-rule:evenodd;stroke:none" />
      <path oryx:anchors="top left"
         d="m 120.15674,99.442192 c 0,0 -5.15298,-1.087996 -5.62757,-5.627565 -0.47459,-4.540507 5.62757,-0.937927 6.5655,-0.625598"
         id="path42"
         style="fill:#f7e4cd;fill-opacity:1;fill-rule:nonzero;stroke:none" />
      <path oryx:anchors="top left"
         d="m 82.327123,99.128924 c 0,0 -6.87876,-0.937927 -6.87876,-5.314297 0,-4.377307 7.816875,-4.064977 10.00506,-2.189123"
         id="path44"
         style="fill:#f7e4cd;fill-opacity:1;fill-rule:nonzero;stroke:none" />
      <path oryx:anchors="top left"
         d="m 39.80712,78.807788 c 0,0 -11.880914,7.19109 -13.130984,0.31233 -1.250445,-6.877822 -4.064977,-11.880727 1.875855,-19.070879 l -4.064227,1.250258 -3.75171,9.691604 -1.25007,9.379274 7.190152,7.504358 8.12883,-0.625598 4.689637,-3.75171 0.312517,-4.689637"
         id="path46"
         style="fill:#f7e4cd;fill-opacity:1;fill-rule:evenodd;stroke:none" />
      <path oryx:anchors="top left"
         d="m 45.434685,98.504264 c 0,0 5.315047,27.512226 32.202801,32.827456 22.136213,4.37544 33.764634,-0.93792 38.141944,-5.93989 0,0 -19.696476,23.44725 -38.455212,16.2571 -18.758549,-7.19109 -32.514193,-20.32208 -32.20205,-28.76249 0.532367,-14.376548 0.312517,-14.382176 0.312517,-14.382176"
         id="path48"
         style="fill:#f7e4cd;fill-opacity:1;fill-rule:evenodd;stroke:none" />
      <path oryx:anchors="top left"
         d="m 117.96855,122.26572 c 0,0 -9.066,0.31233 -9.37927,-7.81669 0,0 -9.4e-4,-1.25026 0.62466,-2.50051 0,0 7.19203,8.12901 11.5684,3.75171"
         id="path50"
         style="fill:#f7e4cd;fill-opacity:1;fill-rule:evenodd;stroke:none" />
      <path oryx:anchors="top left"
         d="m 78.267679,111.10157 c 0,0 -1.560805,12.47725 -12.19859,5.22332 -6.87801,-4.68964 -6.252225,-11.25513 -5.002155,-12.50539 1.250445,-1.2512 0.910446,-3.76953 1.862349,-2.04093 0.951433,1.7286 0.638166,7.35616 4.077733,8.91875 3.439192,1.56353 9.076981,3.30995 11.260663,0.40425"
         id="path52"
         style="fill:#f7e4cd;fill-opacity:1;fill-rule:evenodd;stroke:none" />
      <path oryx:anchors="top left"
         d="M 39.8,35.35 9.175,14.725 12.6,5.025 13.8,-0.1 l 8.7,0 C 20.891388,7.845648 19.475,13.475 19.475,13.475 L 48.875,26.6 39.8,35.35 z"
         id="path54"
         style="fill:#49728b;fill-opacity:1;fill-rule:evenodd;stroke:none" />
      <path oryx:anchors="top left"
         d="m 117.35,39.725 -7.5,-7.5 0,-29.075 -0.8,-3.25 19.7,0 c 1.65588,7.160184 5.475,22.625 5.475,22.625 l -14.075,14.7 -2.8,2.5 z"
         id="path62"
         style="fill:#335061;fill-opacity:1;fill-rule:evenodd;stroke:none" />
      <path oryx:anchors="top left"
         d="m 111.40306,33.161673 21.88466,-16.257096 0.6256,7.50342 -16.57036,15.319168 -5.9399,-6.565492"
         id="path66"
         style="fill:#49728b;fill-opacity:1;fill-rule:evenodd;stroke:none" />
      <path oryx:anchors="top left"
         d="m 95.15,11.6 -7.2,-0.95 4.55,-10.75 4.075,0 c -0.842976,1.979144 -1.425,3.539552 -1.425,4.175 0,0 1.56088,3.762928 3.75,2.825 2.18912,-0.937928 6.875,-3.45 6.875,-3.45 l 0,5.95 -10.625,2.2 z"
         id="path78"
         style="fill:#dcd9d8;fill-opacity:1;fill-rule:evenodd;stroke:none" />
      <path oryx:anchors="top left"
         d="m 65.664279,25.96777 -8.661197,0.941679 -8.129205,2.501453 0,-2.813783 3.971935,-4.380121 12.505575,-5.627565"
         id="path80"
         style="fill:#ffffff;fill-opacity:1;fill-rule:nonzero;stroke:none" />
      <path oryx:anchors="top left"
         d="m 51.688785,25.03078 c 0,0 9.692542,-4.064977 12.818842,-3.12705 l 0.311017,-3.747958 -8.752364,1.872103 -5.315422,3.75171 0.937927,1.251195"
         id="path82"
         style="fill:#dcd9d8;fill-opacity:1;fill-rule:evenodd;stroke:none" />
      <path oryx:anchors="top left"
         d="m 115.02815,9.8973211 c -5.30492,0.1556959 -10.09773,0.7859829 -14.29401,1.9696479 0.28513,1.720159 -0.24855,3.408428 0.18008,4.64743 1.16959,0.842259 3.12986,0.829128 4.89786,1.027031 -1.52883,0.75128 -3.67668,1.048603 -5.44092,0.614342 -0.0413,1.193982 -0.576827,1.934007 -0.90135,2.868182 2.98261,1.064548 10.02363,8.043666 13.9845,5.732613 1.88711,-1.099251 2.68904,-7.377737 2.83535,-10.430691 0.12193,-2.532404 -0.22979,-5.087319 -1.26151,-6.4285549"
         id="path84"
         style="fill:#d33833;fill-opacity:1;fill-rule:evenodd;stroke:none" />
      <path oryx:anchors="top left"
         d="M 115.5,8.875 115,8.90625 c -5.36637,0.1574994 -10.23276,0.7875041 -14.53125,2 l -0.875,0.25 0.15625,0.875 c 0.117475,0.708715 0.07613,1.477071 0.03125,2.28125 -0.04488,0.804179 -0.114619,1.657942 0.1875,2.53125 l 0.0625,0.1875 -0.625,-0.15625 -0.03125,1.25 c -0.03147,0.90977 -0.46104,1.460829 -0.84375,2.5625 l -0.34375,0.9375 0.9375,0.34375 c 0.537173,0.191727 1.55826,0.802804 2.6875,1.5625 1.12924,0.759696 2.39649,1.650438 3.75,2.46875 1.35351,0.818312 2.7719,1.549984 4.1875,1.9375 1.4156,0.387516 2.92791,0.440665 4.21875,-0.3125 0.80291,-0.467701 1.24138,-1.240027 1.625,-2.125 0.38362,-0.884973 0.67014,-1.915364 0.90625,-3 0.47221,-2.169272 0.70548,-4.544006 0.78125,-6.125 0.12793,-2.656946 -0.1298,-5.353121 -1.46875,-7.09375 L 115.5,8.875 z m -1.09375,2.09375 c 0.60052,1.099485 0.97944,3.143378 0.875,5.3125 -0.0705,1.47196 -0.28164,3.773228 -0.71875,5.78125 -0.21855,1.004011 -0.51044,1.928188 -0.8125,2.625 -0.30206,0.696812 -0.67186,1.136826 -0.8125,1.21875 -0.6896,0.402361 -1.54445,0.429352 -2.65625,0.125 -1.1118,-0.304352 -2.38157,-0.948096 -3.65625,-1.71875 -1.27468,-0.770654 -2.56517,-1.661428 -3.71875,-2.4375 -0.81414,-0.547711 -1.48829,-0.887856 -2.1875,-1.25 0.18106,-0.399979 0.30155,-0.890274 0.4375,-1.4375 1.76971,0.204522 3.61192,-0.02182 5.09375,-0.75 l 3.0625,-1.5 -3.375,-0.375 c -1.67738,-0.187759 -3.24754,-0.370518 -4.09375,-0.78125 -0.0576,-0.366267 -0.0959,-0.744786 -0.0625,-1.34375 0.028,-0.501846 -0.0126,-1.141368 -0.0312,-1.75 3.74416,-0.984122 7.98391,-1.543112 12.65625,-1.71875 z"
         id="path86"
         style="font-size:medium;font-style:normal;font-variant:normal;font-weight:normal;font-stretch:normal;text-indent:0;text-align:start;text-decoration:none;line-height:normal;letter-spacing:normal;word-spacing:normal;text-transform:none;direction:ltr;block-progression:tb;writing-mode:lr-tb;text-anchor:start;baseline-shift:baseline;color:#000000;fill:#d33833;fill-opacity:1;stroke:none;stroke-width:2;marker:none;visibility:visible;display:inline;overflow:visible;enable-background:accumulate;font-family:Sans;-inkscape-font-specification:Sans" />
      <path oryx:anchors="top left"
         d="M 70.2,25.85 C 65.952058,25.76239 66.392219,18.342504 66.6,13.8 66.773985,9.96388 68.783543,5.89844 69.65,3.35 c 0.406685,-1.19004 0.48263,-2.438736 1.5,-2.675 1.798194,-0.41916 7.734855,1.953208 9.425,2.875 3.574632,1.949104 6.338936,5.046552 9.375,7.125 0.03936,1.011088 0.08467,2.013912 0.125,3.025 -1.825208,0.909792 -3.920344,1.55776 -6.6,1.675 1.817704,0.91448 4.493616,0.887 6.15,1.975 0.01592,0.405184 0.01096,0.823568 0.02496,1.225 -3.02388,0.232608 -4.156904,1.585128 -6.15,2.675 -3.261456,1.782064 -8.162393,3.7212 -12.375,4.525 -0.326352,0.0624 -0.641804,0.08084 -0.925,0.07496 z"
         id="path88"
         style="fill:#d33833;fill-opacity:1;fill-rule:evenodd;stroke:none" />
      <path oryx:anchors="top left"
         d="m 71.03125,0.09375 c -0.753312,0.17494185 -1.373599,0.72913203 -1.6875,1.28125 -0.313901,0.552118 -0.430911,1.0883073 -0.625,1.65625 -0.819105,2.4091665 -2.936673,6.5664155 -3.125,10.71875 -0.103553,2.263881 -0.266408,5.301972 0.15625,7.90625 0.211329,1.302139 0.556094,2.522364 1.25,3.5 0.693906,0.977636 1.834227,1.65959 3.1875,1.6875 l 2.46875,0.0625 -0.4375,-0.4375 c 4.130967,-0.913213 8.614665,-2.630599 11.75,-4.34375 2.158687,-1.180421 3.002633,-2.351162 5.75,-2.5625 L 90.6875,19.5 90.65625,18.53125 C 90.64338,18.162228 90.6423,17.752811 90.625,17.3125 L 90.59375,16.78125 90.1875,16.5 c -0.739745,-0.485903 -1.592548,-0.637057 -2.40625,-0.84375 0.974112,-0.291121 1.916772,-0.64717 2.75,-1.0625 L 91.09375,14.3125 91.0625,13.65625 C 91.02203,12.641669 90.9767,11.631962 90.9375,10.625 l 0,-0.5 L 90.5,9.84375 C 87.612605,7.8670785 84.837838,4.7460408 81.0625,2.6875 80.055833,2.1384717 78.198535,1.4153135 76.25,0.84375 75.275732,0.55796824 74.290333,0.3064038 73.40625,0.15625 72.522167,0.0060962 71.76614,-0.07755336 71.03125,0.09375 z m 0.4375,1.96875 c 0.164207,-0.038277 0.8249,-0.036833 1.59375,0.09375 0.76885,0.1305825 1.67281,0.3548608 2.59375,0.625 1.84188,0.5402785 3.754022,1.2834863 4.4375,1.65625 3.220435,1.7559743 5.87246,4.5660919 8.875,6.71875 0.02533,0.62582 0.03652,1.252678 0.0625,1.875 -1.58296,0.715825 -3.322169,1.244364 -5.59375,1.34375 l -3.84375,0.15625 3.4375,1.75 c 1.088438,0.547589 2.286469,0.759806 3.375,1 0.678409,0.149697 1.12516,0.365216 1.65625,0.5625 -2.244652,0.533949 -3.521519,1.705694 -5.03125,2.53125 -3.159409,1.726305 -8.031732,3.631184 -12.09375,4.40625 -0.245294,0.0469 -0.494344,0.06716 -0.71875,0.0625 C 69.448052,24.827855 69.036804,24.580186 68.625,24 c -0.411804,-0.580186 -0.722599,-1.524653 -0.90625,-2.65625 -0.367302,-2.263194 -0.229228,-5.221377 -0.125,-7.5 0.159643,-3.519906 2.086191,-7.4685365 3,-10.15625 0.212596,-0.6220973 0.369915,-1.114944 0.5,-1.34375 0.130085,-0.228806 0.110942,-0.2199278 0.375,-0.28125 z"
         id="path90"
         style="font-size:medium;font-style:normal;font-variant:normal;font-weight:normal;font-stretch:normal;text-indent:0;text-align:start;text-decoration:none;line-height:normal;letter-spacing:normal;word-spacing:normal;text-transform:none;direction:ltr;block-progression:tb;writing-mode:lr-tb;text-anchor:start;baseline-shift:baseline;color:#000000;fill:#d33833;fill-opacity:1;stroke:none;stroke-width:2;marker:none;visibility:visible;display:inline;overflow:visible;enable-background:accumulate;font-family:Sans;-inkscape-font-specification:Sans" />
      <path oryx:anchors="top left"
         d="m 92.675464,12.788013 c -0.463336,2.639328 -0.998893,3.392484 -0.791611,5.695096 7.039146,4.693389 8.360687,-8.061486 0.791611,-5.695096"
         id="path92"
         style="fill:#d33833;fill-opacity:1;fill-rule:evenodd;stroke:none" />
      <path oryx:anchors="top left"
         d="m 95.28125,11.59375 c -0.856793,-0.146484 -1.841975,-0.08273 -2.90625,0.25 L 91.78125,12 91.6875,12.625 c -0.223124,1.270992 -0.447081,2.073051 -0.625,2.9375 -0.177919,0.864449 -0.298909,1.762401 -0.1875,3 l 0.0625,0.5 0.40625,0.25 c 1.945743,1.297335 3.784813,1.499642 5.15625,0.8125 1.371437,-0.687142 2.087744,-2.083339 2.25,-3.5 0.162256,-1.416661 -0.2017,-2.943847 -1.3125,-4 -0.5554,-0.528077 -1.299457,-0.884766 -2.15625,-1.03125 z M 94.9375,13.5 c 0.492207,0.07977 0.81863,0.300915 1.09375,0.5625 0.55024,0.52317 0.820638,1.454164 0.71875,2.34375 -0.101888,0.889586 -0.536672,1.627068 -1.15625,1.9375 -0.545603,0.273367 -1.426926,0.204615 -2.6875,-0.5 C 92.888,17.159823 92.88164,16.5438 93,15.96875 c 0.117018,-0.568549 0.315975,-1.401206 0.5,-2.28125 0.530182,-0.111145 1.077956,-0.245772 1.4375,-0.1875 z"
         id="path94"
         style="font-size:medium;font-style:normal;font-variant:normal;font-weight:normal;font-stretch:normal;text-indent:0;text-align:start;text-decoration:none;line-height:normal;letter-spacing:normal;word-spacing:normal;text-transform:none;direction:ltr;block-progression:tb;writing-mode:lr-tb;text-anchor:start;baseline-shift:baseline;color:#000000;fill:#d33833;fill-opacity:1;stroke:none;stroke-width:2;marker:none;visibility:visible;display:inline;overflow:visible;enable-background:accumulate;font-family:Sans;-inkscape-font-specification:Sans" />
      <path oryx:anchors="top left"
         d="m 102.86792,10.648601 c 0,0 -2.18912,3.12705 -0.6256,4.064978 1.56353,0.937927 3.12705,-9.38e-4 4.06498,1.562587 0.93793,1.563525 0,2.501452 0.31233,4.377307 0.31233,1.875855 1.87679,2.189123 3.43938,2.501452 1.56259,0.31233 5.94083,0.937928 6.56549,-0.625597 l -1.87585,5.627565 -3.75171,1.250257 -11.880728,-6.877822 -0.625598,-3.43938 0,-6.877822"
         id="path96"
         style="fill:#ef3d3a;fill-opacity:1;fill-rule:evenodd;stroke:none" />
      <path oryx:anchors="top left"
         d="m 71.625,27.525 c -1.548606,0.03208 -2.964646,-0.220968 -4,-0.925 -7.345473,-4.99552 -1.424684,-16.551664 2.175,-23.35 -0.308286,3.90288 -0.621088,7.799088 -0.975,11.7 -0.661708,7.27832 1.740937,6.025 8.05,6.025 0.963626,0 5.944528,-1.148104 6.3,-1.875 1.705152,-3.482528 -2.86532,-2.7238 1.95,-5.35 4.064976,-2.21632 11.267312,1.348072 9.625,6.275 -0.919168,1.095496 -4.787808,0.355608 -6.175,1.075 -2.44236,1.2662 -4.907352,2.5088 -7.35,3.775 -2.136435,1.108456 -6.193068,2.579488 -9.6,2.65 z M 69.8,3.225 c 0.07626,-0.965728 0.175634,-1.933816 0.25,-2.9 l 1.1,0.35 c -0.371488,0.7388 -0.840392,1.587672 -1.35,2.55 z"
         id="path98"
         style="fill:#ef3d3a;fill-opacity:1;fill-rule:evenodd;stroke:none" />
      <path oryx:anchors="top left"
         d="m 78.267679,111.10157 c -8.521258,1.98465 -12.755438,-3.566 -15.338396,-9.323 -2.306364,0.559 -1.388602,3.69543 -0.806055,5.29366 1.525258,4.19441 7.671965,9.7779 12.694285,9.02099 2.161266,-0.32546 5.086005,-2.30168 3.450166,-4.99165"
         id="path100"
         style="fill:#231f20;fill-opacity:1;fill-rule:evenodd;stroke:none" />
      <path oryx:anchors="top left"
         d="m 119.78626,101.39777 c 0.13412,-0.006 0.27012,-0.0103 0.40424,-0.0159 1.92557,-4.000265 3.59227,-8.237821 6.0215,-11.769118 -1.62731,-3.790165 -12.32249,-7.144193 -12.15742,-0.338592 2.31293,1.011086 6.30569,0.206344 8.356,1.49787 -1.18554,3.253671 -2.89632,6.02337 -2.62432,10.62578"
         id="path102"
         style="fill:#231f20;fill-opacity:1;fill-rule:evenodd;stroke:none" />
      <path oryx:anchors="top left"
         d="m 82.630261,101.29366 c 1.827083,-3.349338 2.421729,-6.868442 5.01885,-9.399908 1.169595,-1.139582 3.444069,-2.528653 2.316681,-5.697909 -0.263558,-0.747529 -2.189123,-2.414226 -3.300567,-2.741562 -4.060288,-1.198672 -13.52135,-0.247613 -10.317389,4.814381 3.357874,-0.156634 7.871274,-2.180681 10.381168,0.256992 -1.927441,3.081092 -5.363632,9.176682 -4.098743,12.768006"
         id="path104"
         style="fill:#231f20;fill-opacity:1;fill-rule:evenodd;stroke:none" />
      <path oryx:anchors="top left"
         d="m 118.26212,67.252522 c -6.11341,-3.927102 -12.93026,-8.197486 -22.947328,-7.207034 -2.140351,1.860848 -2.956347,6.001797 -0.876962,8.736794 1.082368,-1.860848 0.402371,-5.283346 3.418745,-5.798268 5.683845,-0.972631 12.299045,3.476897 16.387465,5.031981 2.53522,4.274135 -0.21853,5.846102 -2.50239,8.597043 -4.67557,5.636006 -10.94749,12.621689 -10.71957,21.059285 1.88992,1.370312 2.05312,-2.091579 2.32418,-2.721866 2.44143,-5.713854 8.58579,-13.021246 13.07002,-17.9116 1.10113,-1.204299 2.91414,-2.359826 3.1158,-3.156126 0.58151,-2.315743 -1.51288,-5.090132 -1.26996,-6.630209"
         id="path106"
         style="fill:#231f20;fill-opacity:1;fill-rule:evenodd;stroke:none" />
      <path oryx:anchors="top left"
         d="m 37.66752,71.386906 c -1.916185,1.093624 -2.3723,5.910819 -4.621919,6.047756 -3.214933,0.195089 -2.628729,-6.24941 -2.615879,-10.018003 -2.212946,2.009041 -2.602092,8.194672 -0.976383,11.371433 -1.852781,0.909789 -2.680127,-1.003583 -3.707814,-1.677953 1.320789,9.594998 14.03599,4.450466 11.921995,-5.723233"
         id="path108"
         style="fill:#231f20;fill-opacity:1;fill-rule:evenodd;stroke:none" />
      <path oryx:anchors="top left"
         d="m 122.15452,63.256951 c -2.84567,-5.416531 -6.87125,-11.381749 -15.22162,-11.555266 -0.16977,1.749235 -0.30014,4.411073 0.009,5.464365 6.38353,0.613405 10.3247,3.862386 15.21224,6.090901"
         id="path110"
         style="fill:#231f20;fill-opacity:1;fill-rule:evenodd;stroke:none" />
      <path oryx:anchors="top left"
         d="m 82.148729,59.745351 c 5.325927,-2.800652 15.114138,-3.101726 22.353061,-2.889755 0.3883,-1.586035 0.37892,-3.545365 0.39393,-5.479372 -9.305178,-0.464274 -20.307066,1.838338 -22.746991,8.369127"
         id="path112"
         style="fill:#231f20;fill-opacity:1;fill-rule:evenodd;stroke:none" />
      <path oryx:anchors="top left"
         d="m 81.136424,54.522971 c 3.68296,-9.247027 16.341228,-8.182479 27.015776,-7.927363 -0.4699,-1.200547 -1.48849,-2.618693 -2.75469,-3.13174 -3.42062,-1.391884 -12.855232,-2.44799 -17.603958,0.0741 -3.011685,1.601042 -4.94663,5.218628 -6.596725,7.339282 -0.796864,1.024217 -4.764766,3.640096 -0.0604,3.645724"
         id="path114"
         style="fill:#231f20;fill-opacity:1;fill-rule:evenodd;stroke:none" />
      <path oryx:anchors="top left"
         d="M 110.85,7.725 C 109.82774,7.71692 108.74934,7.476176 107.625,6.95 107.5363,4.745688 107.39062,2.341656 107.2,-0.1 l 8.525,0 c 0.69802,1.208848 1.39718,2.421272 2.1,3.625 -1.38157,2.217824 -3.9082,4.224144 -6.975,4.2 z"
         id="path116"
         style="fill:#81b0c4;fill-opacity:1;fill-rule:evenodd;stroke:none" />
      <path oryx:anchors="top left"
         d="m 102.33143,26.985421 c -2.2257,-1.452849 -4.121256,-3.266801 -6.258793,-4.818133 -4.740285,-0.234482 -7.327089,0.328274 -10.809614,3.05014 0.05721,0.218537 0.407061,0.120993 0.420192,0.38924 5.074187,-2.261343 11.524314,0.921045 16.648215,1.378753"
         id="path126"
         style="fill:#f0d6b7;fill-opacity:1;fill-rule:evenodd;stroke:none" />
      <path oryx:anchors="top left"
         d="m 87.5,4.9 c -2.378504,-1.595144 -4.844472,-3.15304 -6.95,-5 l 10.325,0 c -1.032,1.748752 -2.143048,3.436488 -3.375,5 z"
         id="path128"
         style="fill:#81b0c4;fill-opacity:1;fill-rule:evenodd;stroke:none" />
      <path oryx:anchors="top left"
         d="M 79.925,143.875 C 73.364194,143.75195 66.94907,142.66859 61.6,140.7 c -3.976344,-1.46317 -7.832252,-2.77469 -11.325,-4.825 -9.343727,-5.48594 -19.254081,-9.16153 -22.025,-20.2 -6.825579,-3.05764 -8.893656,-11.786 -8.55,-21.925 0.06669,-1.976213 1.147263,-4.466966 0.775,-6.325 -0.188711,-0.943555 -1.468477,-2.135658 -1.725,-2.75 -3.271022,-7.800743 -0.655598,-18.056848 3.125,-23.6 2.285448,-3.349336 6.083819,-6.3362 11.075,-7.125 0.197809,-2.98824 0.919465,-5.546432 2.3,-8.575 0.872742,-1.915248 4.126673,-5.356704 2.925,-7.8 C 37.570506,36.34256 32.262272,33.65704 30.5,32.6 24.55007,29.030248 20.243816,26.85524 14.75,22.9 11.196099,20.342272 5.6236944,20.002376 6.5,14.1 7.0909881,10.11756 9.3530336,5.1936 10.65,1.2 10.792621,0.762048 10.946351,0.331384 11.1,-0.1 l 6.6,0 0.4,0 49.95,0 c 4.512474,0.0032 9.032275,0.0032 13.55,0 l 9.275,0 4,0 10,0 2.325,0 18.7,0 4.05,0 0.425,0 c 1.33856,4.189864 2.67543,8.468088 4,12.9 0.97076,3.253672 2.88051,7.853152 2.45,11.225 -0.40049,3.16832 -5.34725,6.514168 -7.95,9.025 -1.44535,1.39376 -8.18388,6.508816 -8.575,8.425 -0.37986,1.853344 2.74361,6.05092 3.75,8.15 1.44347,3.006056 2.48717,6.672608 3.2,9.175 5.3021,18.639432 5.83033,44.25208 -1.75,59.575 -2.8701,5.80373 -10.88022,13.82827 -15.9,17.625 -7.39908,5.59591 -18.74032,8.08009 -29.675,7.875 z m 0.875,-5.2 c 8.860416,0.088 18.726704,-3.03487 25.4,-6.8 5.57504,-3.14581 9.67759,-9.213 13.6,-14.275 -5.50095,1.63294 -10.17852,-1.1873 -9.325,-5.725 4.60522,4.22068 12.47394,0.0412 14.8,-4.625 2.2257,-4.46266 2.20859,-11.066977 2.55,-17.7 0.82912,-16.08358 -2.94288,-32.674392 -11.025,-44.3 -2.16005,-3.104536 -3.96111,-6.487464 -7,-8.625 C 102.47667,31.482344 91.331032,26.803544 81.8,30 69.203915,34.22724 63.477063,42.614992 56.55,52.225 c 0.187586,-5.278656 3.909392,-9.611288 7.575,-13.65 3.191204,-3.52004 7.033112,-7.484568 11.175,-9.125 -3.456075,0.811304 -8.760188,1.076728 -10.2,-2.025 -8.061393,0.53556 -15.536012,1.335632 -19.35,6.8 -3.005026,4.307904 -6.055438,11.64148 -7.425,17.3 -0.279127,1.162088 -0.767241,3.64096 -0.65,4.275 0.449924,2.45456 4.820065,3.543128 3.1,6.975 -3.173571,0.03 -3.887266,-2.887056 -6.8,-3.175 -7.540092,-0.745648 -12.867531,9.96986 -12.525,16.45 0.289444,5.510324 4.953659,10.79688 11.325,10.1 4.502709,-0.49335 6.026227,-5.402382 6.9,-9.775 2.595808,-0.138813 6.347628,0.100014 7.575,2.125 -0.175861,4.942877 -2.457572,8.909494 -2.3,13.45 0.29676,8.53326 4.936822,16.24523 1.35,24.65 3.839594,8.70959 15.093578,15.57092 23.425,19.725 3.226646,1.60854 7.047538,2.30998 11.075,2.35 z M 57.7,134.4 c 0.435688,0.0243 0.825521,-0.2995 1.2,-0.7 -0.05609,-1.48286 -1.51255,-1.44854 -2.5,-1.925 -1.536982,-1.88711 -3.781461,-2.75499 -5.65,-4.825 -1.916842,-2.11971 -4.059155,-7.81971 -6.6,-8.45 -1.275019,-0.31702 -2.740619,0.2222 -3.85,0.15 -2.935431,-0.18571 -4.999332,-1.69261 -7.975,-2.125 3.842876,8.40102 15.823207,15.19941 25.175,17.85 0.0641,0.0182 0.137759,0.0215 0.2,0.025 z M 43.425,115.275 c 3.29372,-8.38507 -2.382336,-18.330822 -0.275,-27.5 0.644825,-2.807217 2.889874,-7.18027 -0.675,-7.275 0.09342,7.989266 -9.808253,13.07214 -17.275,8.375 -0.500103,6.059011 -1.380914,14.5798 2.75,19.125 3.812112,4.19723 9.079835,6.79009 15.475,7.275 z m 73.25,-78.725 c 3.65697,-2.945088 5.86903,-5.72544 9.375,-8.875 1.90305,-1.705152 5.62202,-3.742496 6,-6.5 0.21197,-1.540072 -0.72797,-5.319528 -1.075,-7.05 C 130.33462,10.959496 129.35934,7.381568 128.2,3.7 l -2.3,0 -5.725,0 c 0.13019,0.230424 0.39602,0.69396 0.525,0.925 -0.73721,1.72016 -2.54976,2.436624 -3.075,4.35 3.39811,6.415424 1.84427,26.328792 -6.825,22.125 1.21274,1.780184 4.39213,3.26088 5.875,5.45 z M 40.4,32.025 c 0.787765,0.310456 6.524957,-7.169096 7.375,-7.775 4.660281,-3.309944 10.46072,-5.943824 15.875,-8.525 0.330525,-2.484568 1.102855,-5.692096 2.45,-10 0.200546,-0.641544 0.399654,-1.341336 0.6,-2.025 l -48.6,0 -0.4,0 -1.975,0 c -1.221854,3.59556 -2.590057,7.05272 -4.15,10.4 8.694118,6.710872 18.419914,13.821568 28.825,17.925 z m 71,-4.8 c 0.74206,0.03448 1.43111,-0.113752 2.05,-0.475 1.88711,-1.099248 2.70369,-7.372048 2.85,-10.425 0.12193,-2.532408 -0.24328,-5.083768 -1.275,-6.425 -5.30492,0.155696 -10.10372,0.791336 -14.3,1.975 0.28513,1.72016 -0.22863,3.411 0.2,4.65 1.16959,0.842256 3.107,0.827096 4.875,1.025 -1.52883,0.75128 -3.66076,1.034264 -5.425,0.6 -0.0413,1.193984 -0.57548,1.940824 -0.9,2.875 2.51658,0.898216 7.91792,6.01396 11.925,6.2 z m -9.075,-0.25 c -2.2257,-1.452848 -4.112464,-3.248664 -6.25,-4.8 -4.740288,-0.23448 -7.317472,0.328136 -10.8,3.05 0.0572,0.218536 0.386872,0.106752 0.4,0.375 5.074184,-2.261344 11.526096,0.917288 16.65,1.375 z M 52.35,26.9 C 54.995987,25.0626 60.105444,25.508752 64,24.825 64.203343,23.57756 63.18171,21.93892 63.2,20.2 59.920911,20.401656 49.643141,24.151872 52.35,26.9 z M 70.2,25.85 c 0.283196,0.0056 0.598648,-0.01256 0.925,-0.07496 4.212607,-0.8038 9.113544,-2.742936 12.375,-4.525 1.993096,-1.089872 3.12612,-2.442392 6.15,-2.675 -0.01408,-0.401432 -0.009,-0.819816 -0.02496,-1.225 -1.656376,-1.087992 -4.332296,-1.06052 -6.15,-1.975 2.679656,-0.11724 4.774792,-0.765208 6.6,-1.675 -0.04032,-1.011088 -0.08561,-2.013912 -0.125,-3.025 -2.962968,-2.0284 -5.673912,-5.020088 -9.125,-6.975 -0.08515,-0.04824 -0.163928,-0.10304 -0.25,-0.15 -1.690145,-0.921792 -7.626806,-3.29416 -9.425,-2.875 -1.01737,0.236264 -1.093315,1.48496 -1.5,2.675 -0.0346,0.101768 -0.08694,0.243504 -0.125,0.35 -0.914946,2.56032 -2.757963,6.417072 -2.925,10.1 -0.207781,4.542504 -0.647942,11.963064 3.6,12.05 z m 24.55,-6.325 c 4.366344,0.03032 4.311408,-8.72164 -2.075,-6.725 -0.463336,2.639328 -1.00728,3.372392 -0.8,5.675 1.099864,0.733344 2.066416,1.044384 2.875,1.05 z M 97.7,10.35 c 0.119456,0.0064 0.2286,0.01304 0.35,0 2.22664,-0.23636 3.97324,-3.301656 7.15,-3.1 -0.0727,-1.18332 -0.12656,-2.364704 -0.175,-3.55 l -12.275,0 c -0.77328,1.238968 -1.60948,2.42168 -2.525,3.525 0.589952,0.624656 1.121296,1.310336 1.7,1.95 2.367976,-0.990096 3.983208,1.083112 5.775,1.175 z m 13.1,-2.625 c 3.01161,0.05096 5.48678,-1.864776 6.9,-4.025 l -10.25,0 c 0.0665,1.118608 0.13291,2.204008 0.175,3.25 1.10159,0.515536 2.17113,0.758 3.175,0.775 z M 87.5,4.9 c 0.307992,-0.39088 0.606472,-0.794584 0.9,-1.2 l -2.7,0 c 0.601432,0.401184 1.202504,0.799288 1.8,1.2 z"
         id="path130"
         style="fill:#231f20;fill-opacity:1;fill-rule:evenodd;stroke:none" />
      <path oryx:anchors="top left"
         d="m 73.673992,57.379898 c 0.411469,0.547749 2.673844,1.379691 5.839349,-0.144441 0,0 -3.75171,-0.625598 -3.439568,-6.880636 l -1.563337,0.313268 c 0,0 -1.615674,5.671647 -0.836444,6.711809"
         id="path132"
         style="fill:#f7e4cd;fill-opacity:1;fill-rule:evenodd;stroke:none" />
      <path oryx:anchors="top left"
         d="m 101.08586,3.616959 c 0,-0.9492764 -0.77004,-1.7190334 -1.72016,-1.7190334 -0.949182,0 -1.719221,0.769757 -1.719221,1.7190334 0,0.9491825 0.770039,1.7201589 1.719221,1.7201589 0.95012,0 1.72016,-0.7709764 1.72016,-1.7201589"
         id="path134"
         style="fill:#1d1919;fill-opacity:1;fill-rule:evenodd;stroke:none" />
      <path oryx:anchors="top left"
         d="m 107.96462,30.661159 -12.506325,-1.875855 -16.882882,-1.875855 -10.942987,-0.31233 -10.629344,0.31233 -8.129205,2.501453 -7.190902,7.815749 -5.627564,15.944766 -1.250445,3.43938 -7.50342,2.500515 -4.37712,7.191089 -3.126299,10.317202 3.439567,9.066945 8.128079,2.813782 6.565493,-3.12705 3.12705,-6.877822 3.751709,0.625598 1.25007,1.562587 -1.25007,7.19109 -0.313267,9.066944 1.875854,12.505383 -0.07325,7.14326 5.700817,9.11384 10.004685,7.19109 17.508479,7.50342 19.383396,-2.81378 16.882691,-12.19306 7.81669,-12.50539 5.00196,-9.06694 1.25026,-22.510259 -3.75171,-19.384147 -6.87782,-17.195024 -6.56549,-9.066944"
         id="path4322"
         style="fill:#f0d6b7;fill-opacity:1;fill-rule:evenodd;stroke:none" />
      <path oryx:anchors="top left"
         d="m 42,35.05 -7.825,-3.15 -25,-17.175 1.55,-5 3.325,-9.825 56.15,0 -1.625,2 -3.75,16.25 L 61.7,19.1 54.825,21.275 48.875,26.6 42,35.05 z M 78.575,0.95 75.55,-0.1 l 2.475,0 0.55,1.05 z"
         id="path4324"
         style="fill:#335061;fill-opacity:1;fill-rule:evenodd;stroke:none" />
      <path oryx:anchors="top left"
         d="m 23.237694,85.686548 8.128079,2.813782 6.565493,-3.12705 3.12705,-6.877822 3.751709,0.625598 0.937928,3.75171 -1.875855,7.190151 1.875855,17.195963 -1.563713,9.37927 5.627565,6.5655 12.193057,9.6916 -3.439193,4.68964 -17.195211,-8.44135 -7.190902,-5.62756 -4.064227,-8.75368 -6.252975,-8.44135 -1.875855,-10.00487 1.251195,-10.629532"
         id="path4326"
         style="fill:#6d6b6d;fill-opacity:1;fill-rule:evenodd;stroke:none" />
      <path oryx:anchors="top left"
         d="m 36.055411,115.07463 c 0,0 4.689637,11.56746 23.448186,17.19502 18.758548,5.62757 0.937927,4.06498 0.937927,4.06498 l -20.321136,-7.81669 -7.816687,-7.81575 -3.438442,-6.25316 7.190152,0.6256"
         id="path4328"
         style="fill:#dcd9d8;fill-opacity:1;fill-rule:evenodd;stroke:none" />
      <path oryx:anchors="top left"
         d="m 26.676136,87.874733 c 0,0 -6.565492,21.885597 18.446032,25.011707 l -0.937928,3.75171 -17.194836,-4.06497 -5.002905,-16.2571 1.251195,-10.629532 3.438442,2.188185"
         id="path4330"
         style="fill:#dcd9d8;fill-opacity:1;fill-rule:evenodd;stroke:none" />
      <path oryx:anchors="top left"
         d="m 36.680821,58.798982 4.093584,3.966495 c 0,0 1.847623,-0.214785 2.159765,-2.40297 0.312143,-2.189123 1.25007,-21.885599 14.693572,-32.516068 1.226246,-0.969817 -10.003934,1.564463 -10.003934,1.564463 L 37.618748,45.0424"
         id="path4332"
         style="fill:#f7e4cd;fill-opacity:1;fill-rule:evenodd;stroke:none" />
      <path oryx:anchors="top left"
         d="m 94.208975,64.738876 c 0,0 0.72877,9.476819 3.280871,8.74805 2.552104,-0.72877 2.552104,-3.28087 2.552104,-3.28087 0,0 -6.197828,-4.00964 -5.832975,-5.46718"
         id="path4334"
         style="fill:#f7e4cd;fill-opacity:1;fill-rule:evenodd;stroke:none" />
      <path oryx:anchors="top left"
         d="m 120.15674,99.442192 c 0,0 -5.15298,-1.087996 -5.62757,-5.627565 -0.47459,-4.540507 5.62757,-0.937927 6.5655,-0.625598"
         id="path4336"
         style="fill:#f7e4cd;fill-opacity:1;fill-rule:nonzero;stroke:none" />
      <path oryx:anchors="top left"
         d="m 82.327123,99.128924 c 0,0 -6.87876,-0.937927 -6.87876,-5.314297 0,-4.377307 7.816875,-4.064977 10.00506,-2.189123"
         id="path4338"
         style="fill:#f7e4cd;fill-opacity:1;fill-rule:nonzero;stroke:none" />
      <path oryx:anchors="top left"
         d="m 39.80712,78.807788 c 0,0 -11.880914,7.19109 -13.130984,0.31233 -1.250445,-6.877822 -4.064977,-11.880727 1.875855,-19.070879 l -4.064227,1.250258 -3.75171,9.691604 -1.25007,9.379274 7.190152,7.504358 8.12883,-0.625598 4.689637,-3.75171 0.312517,-4.689637"
         id="path4340"
         style="fill:#f7e4cd;fill-opacity:1;fill-rule:evenodd;stroke:none" />
      <path oryx:anchors="top left"
         d="m 45.434685,98.504264 c 0,0 5.315047,27.512226 32.202801,32.827456 22.136213,4.37544 33.764634,-0.93792 38.141944,-5.93989 0,0 -19.696476,23.44725 -38.455212,16.2571 -18.758549,-7.19109 -32.514193,-20.32208 -32.20205,-28.76249 0.532367,-14.376548 0.312517,-14.382176 0.312517,-14.382176"
         id="path4342"
         style="fill:#f7e4cd;fill-opacity:1;fill-rule:evenodd;stroke:none" />
      <path oryx:anchors="top left"
         d="m 117.96855,122.26572 c 0,0 -9.066,0.31233 -9.37927,-7.81669 0,0 -9.4e-4,-1.25026 0.62466,-2.50051 0,0 7.19203,8.12901 11.5684,3.75171"
         id="path4344"
         style="fill:#f7e4cd;fill-opacity:1;fill-rule:evenodd;stroke:none" />
      <path oryx:anchors="top left"
         d="m 78.267679,111.10157 c 0,0 -1.560805,12.47725 -12.19859,5.22332 -6.87801,-4.68964 -6.252225,-11.25513 -5.002155,-12.50539 1.250445,-1.2512 0.910446,-3.76953 1.862349,-2.04093 0.951433,1.7286 0.638166,7.35616 4.077733,8.91875 3.439192,1.56353 9.076981,3.30995 11.260663,0.40425"
         id="path4346"
         style="fill:#f7e4cd;fill-opacity:1;fill-rule:evenodd;stroke:none" />
      <path oryx:anchors="top left"
         d="M 39.8,35.35 9.175,14.725 12.6,5.025 13.8,-0.1 l 8.7,0 C 20.891388,7.845648 19.475,13.475 19.475,13.475 L 48.875,26.6 39.8,35.35 z"
         id="path4348"
         style="fill:#49728b;fill-opacity:1;fill-rule:evenodd;stroke:none" />
      <path oryx:anchors="top left"
         d="m 117.35,39.725 -7.5,-7.5 0,-29.075 -0.8,-3.25 19.7,0 c 1.65588,7.160184 5.475,22.625 5.475,22.625 l -14.075,14.7 -2.8,2.5 z"
         id="path4350"
         style="fill:#335061;fill-opacity:1;fill-rule:evenodd;stroke:none" />
      <path oryx:anchors="top left"
         d="m 111.40306,33.161673 21.88466,-16.257096 0.6256,7.50342 -16.57036,15.319168 -5.9399,-6.565492"
         id="path4352"
         style="fill:#49728b;fill-opacity:1;fill-rule:evenodd;stroke:none" />
      <path oryx:anchors="top left"
         d="m 95.15,11.6 -7.2,-0.95 4.55,-10.75 4.075,0 c -0.842976,1.979144 -1.425,3.539552 -1.425,4.175 0,0 1.56088,3.762928 3.75,2.825 2.18912,-0.937928 6.875,-3.45 6.875,-3.45 l 0,5.95 -10.625,2.2 z"
         id="path4354"
         style="fill:#dcd9d8;fill-opacity:1;fill-rule:evenodd;stroke:none" />
      <path oryx:anchors="top left"
         d="m 65.664279,25.96777 -8.661197,0.941679 -8.129205,2.501453 0,-2.813783 3.971935,-4.380121 12.505575,-5.627565"
         id="path4356"
         style="fill:#ffffff;fill-opacity:1;fill-rule:nonzero;stroke:none" />
      <path oryx:anchors="top left"
         d="m 51.688785,25.03078 c 0,0 9.692542,-4.064977 12.818842,-3.12705 l 0.311017,-3.747958 -8.752364,1.872103 -5.315422,3.75171 0.937927,1.251195"
         id="path4358"
         style="fill:#dcd9d8;fill-opacity:1;fill-rule:evenodd;stroke:none" />
      <path oryx:anchors="top left"
         d="m 115.02815,9.8973211 c -5.30492,0.1556959 -10.09773,0.7859829 -14.29401,1.9696479 0.28513,1.720159 -0.24855,3.408428 0.18008,4.64743 1.16959,0.842259 3.12986,0.829128 4.89786,1.027031 -1.52883,0.75128 -3.67668,1.048603 -5.44092,0.614342 -0.0413,1.193982 -0.576827,1.934007 -0.90135,2.868182 2.98261,1.064548 10.02363,8.043666 13.9845,5.732613 1.88711,-1.099251 2.68904,-7.377737 2.83535,-10.430691 0.12193,-2.532404 -0.22979,-5.087319 -1.26151,-6.4285549"
         id="path4360"
         style="fill:#d33833;fill-opacity:1;fill-rule:evenodd;stroke:none" />
      <path oryx:anchors="top left"
         d="M 115.5,8.875 115,8.90625 c -5.36637,0.1574994 -10.23276,0.7875041 -14.53125,2 l -0.875,0.25 0.15625,0.875 c 0.117475,0.708715 0.07613,1.477071 0.03125,2.28125 -0.04488,0.804179 -0.114619,1.657942 0.1875,2.53125 l 0.0625,0.1875 -0.625,-0.15625 -0.03125,1.25 c -0.03147,0.90977 -0.46104,1.460829 -0.84375,2.5625 l -0.34375,0.9375 0.9375,0.34375 c 0.537173,0.191727 1.55826,0.802804 2.6875,1.5625 1.12924,0.759696 2.39649,1.650438 3.75,2.46875 1.35351,0.818312 2.7719,1.549984 4.1875,1.9375 1.4156,0.387516 2.92791,0.440665 4.21875,-0.3125 0.80291,-0.467701 1.24138,-1.240027 1.625,-2.125 0.38362,-0.884973 0.67014,-1.915364 0.90625,-3 0.47221,-2.169272 0.70548,-4.544006 0.78125,-6.125 0.12793,-2.656946 -0.1298,-5.353121 -1.46875,-7.09375 L 115.5,8.875 z m -1.09375,2.09375 c 0.60052,1.099485 0.97944,3.143378 0.875,5.3125 -0.0705,1.47196 -0.28164,3.773228 -0.71875,5.78125 -0.21855,1.004011 -0.51044,1.928188 -0.8125,2.625 -0.30206,0.696812 -0.67186,1.136826 -0.8125,1.21875 -0.6896,0.402361 -1.54445,0.429352 -2.65625,0.125 -1.1118,-0.304352 -2.38157,-0.948096 -3.65625,-1.71875 -1.27468,-0.770654 -2.56517,-1.661428 -3.71875,-2.4375 -0.81414,-0.547711 -1.48829,-0.887856 -2.1875,-1.25 0.18106,-0.399979 0.30155,-0.890274 0.4375,-1.4375 1.76971,0.204522 3.61192,-0.02182 5.09375,-0.75 l 3.0625,-1.5 -3.375,-0.375 c -1.67738,-0.187759 -3.24754,-0.370518 -4.09375,-0.78125 -0.0576,-0.366267 -0.0959,-0.744786 -0.0625,-1.34375 0.028,-0.501846 -0.0126,-1.141368 -0.0312,-1.75 3.74416,-0.984122 7.98391,-1.543112 12.65625,-1.71875 z"
         id="path4362"
         style="font-size:medium;font-style:normal;font-variant:normal;font-weight:normal;font-stretch:normal;text-indent:0;text-align:start;text-decoration:none;line-height:normal;letter-spacing:normal;word-spacing:normal;text-transform:none;direction:ltr;block-progression:tb;writing-mode:lr-tb;text-anchor:start;baseline-shift:baseline;color:#000000;fill:#d33833;fill-opacity:1;stroke:none;stroke-width:2;marker:none;visibility:visible;display:inline;overflow:visible;enable-background:accumulate;font-family:Sans;-inkscape-font-specification:Sans" />
      <path oryx:anchors="top left"
         d="M 70.2,25.85 C 65.952058,25.76239 66.392219,18.342504 66.6,13.8 66.773985,9.96388 68.783543,5.89844 69.65,3.35 c 0.406685,-1.19004 0.48263,-2.438736 1.5,-2.675 1.798194,-0.41916 7.734855,1.953208 9.425,2.875 3.574632,1.949104 6.338936,5.046552 9.375,7.125 0.03936,1.011088 0.08467,2.013912 0.125,3.025 -1.825208,0.909792 -3.920344,1.55776 -6.6,1.675 1.817704,0.91448 4.493616,0.887 6.15,1.975 0.01592,0.405184 0.01096,0.823568 0.02496,1.225 -3.02388,0.232608 -4.156904,1.585128 -6.15,2.675 -3.261456,1.782064 -8.162393,3.7212 -12.375,4.525 -0.326352,0.0624 -0.641804,0.08084 -0.925,0.07496 z"
         id="path4364"
         style="fill:#d33833;fill-opacity:1;fill-rule:evenodd;stroke:none" />
      <path oryx:anchors="top left"
         d="m 71.03125,0.09375 c -0.753312,0.17494185 -1.373599,0.72913203 -1.6875,1.28125 -0.313901,0.552118 -0.430911,1.0883073 -0.625,1.65625 -0.819105,2.4091665 -2.936673,6.5664155 -3.125,10.71875 -0.103553,2.263881 -0.266408,5.301972 0.15625,7.90625 0.211329,1.302139 0.556094,2.522364 1.25,3.5 0.693906,0.977636 1.834227,1.65959 3.1875,1.6875 l 2.46875,0.0625 -0.4375,-0.4375 c 4.130967,-0.913213 8.614665,-2.630599 11.75,-4.34375 2.158687,-1.180421 3.002633,-2.351162 5.75,-2.5625 L 90.6875,19.5 90.65625,18.53125 C 90.64338,18.162228 90.6423,17.752811 90.625,17.3125 L 90.59375,16.78125 90.1875,16.5 c -0.739745,-0.485903 -1.592548,-0.637057 -2.40625,-0.84375 0.974112,-0.291121 1.916772,-0.64717 2.75,-1.0625 L 91.09375,14.3125 91.0625,13.65625 C 91.02203,12.641669 90.9767,11.631962 90.9375,10.625 l 0,-0.5 L 90.5,9.84375 C 87.612605,7.8670785 84.837838,4.7460408 81.0625,2.6875 80.055833,2.1384717 78.198535,1.4153135 76.25,0.84375 75.275732,0.55796824 74.290333,0.3064038 73.40625,0.15625 72.522167,0.0060962 71.76614,-0.07755336 71.03125,0.09375 z m 0.4375,1.96875 c 0.164207,-0.038277 0.8249,-0.036833 1.59375,0.09375 0.76885,0.1305825 1.67281,0.3548608 2.59375,0.625 1.84188,0.5402785 3.754022,1.2834863 4.4375,1.65625 3.220435,1.7559743 5.87246,4.5660919 8.875,6.71875 0.02533,0.62582 0.03652,1.252678 0.0625,1.875 -1.58296,0.715825 -3.322169,1.244364 -5.59375,1.34375 l -3.84375,0.15625 3.4375,1.75 c 1.088438,0.547589 2.286469,0.759806 3.375,1 0.678409,0.149697 1.12516,0.365216 1.65625,0.5625 -2.244652,0.533949 -3.521519,1.705694 -5.03125,2.53125 -3.159409,1.726305 -8.031732,3.631184 -12.09375,4.40625 -0.245294,0.0469 -0.494344,0.06716 -0.71875,0.0625 C 69.448052,24.827855 69.036804,24.580186 68.625,24 c -0.411804,-0.580186 -0.722599,-1.524653 -0.90625,-2.65625 -0.367302,-2.263194 -0.229228,-5.221377 -0.125,-7.5 0.159643,-3.519906 2.086191,-7.4685365 3,-10.15625 0.212596,-0.6220973 0.369915,-1.114944 0.5,-1.34375 0.130085,-0.228806 0.110942,-0.2199278 0.375,-0.28125 z"
         id="path4366"
         style="font-size:medium;font-style:normal;font-variant:normal;font-weight:normal;font-stretch:normal;text-indent:0;text-align:start;text-decoration:none;line-height:normal;letter-spacing:normal;word-spacing:normal;text-transform:none;direction:ltr;block-progression:tb;writing-mode:lr-tb;text-anchor:start;baseline-shift:baseline;color:#000000;fill:#d33833;fill-opacity:1;stroke:none;stroke-width:2;marker:none;visibility:visible;display:inline;overflow:visible;enable-background:accumulate;font-family:Sans;-inkscape-font-specification:Sans" />
      <path oryx:anchors="top left"
         d="m 92.675464,12.788013 c -0.463336,2.639328 -0.998893,3.392484 -0.791611,5.695096 7.039146,4.693389 8.360687,-8.061486 0.791611,-5.695096"
         id="path4368"
         style="fill:#d33833;fill-opacity:1;fill-rule:evenodd;stroke:none" />
      <path oryx:anchors="top left"
         d="m 95.28125,11.59375 c -0.856793,-0.146484 -1.841975,-0.08273 -2.90625,0.25 L 91.78125,12 91.6875,12.625 c -0.223124,1.270992 -0.447081,2.073051 -0.625,2.9375 -0.177919,0.864449 -0.298909,1.762401 -0.1875,3 l 0.0625,0.5 0.40625,0.25 c 1.945743,1.297335 3.784813,1.499642 5.15625,0.8125 1.371437,-0.687142 2.087744,-2.083339 2.25,-3.5 0.162256,-1.416661 -0.2017,-2.943847 -1.3125,-4 -0.5554,-0.528077 -1.299457,-0.884766 -2.15625,-1.03125 z M 94.9375,13.5 c 0.492207,0.07977 0.81863,0.300915 1.09375,0.5625 0.55024,0.52317 0.820638,1.454164 0.71875,2.34375 -0.101888,0.889586 -0.536672,1.627068 -1.15625,1.9375 -0.545603,0.273367 -1.426926,0.204615 -2.6875,-0.5 C 92.888,17.159823 92.88164,16.5438 93,15.96875 c 0.117018,-0.568549 0.315975,-1.401206 0.5,-2.28125 0.530182,-0.111145 1.077956,-0.245772 1.4375,-0.1875 z"
         id="path4370"
         style="font-size:medium;font-style:normal;font-variant:normal;font-weight:normal;font-stretch:normal;text-indent:0;text-align:start;text-decoration:none;line-height:normal;letter-spacing:normal;word-spacing:normal;text-transform:none;direction:ltr;block-progression:tb;writing-mode:lr-tb;text-anchor:start;baseline-shift:baseline;color:#000000;fill:#d33833;fill-opacity:1;stroke:none;stroke-width:2;marker:none;visibility:visible;display:inline;overflow:visible;enable-background:accumulate;font-family:Sans;-inkscape-font-specification:Sans" />
      <path oryx:anchors="top left"
         d="m 102.86792,10.648601 c 0,0 -2.18912,3.12705 -0.6256,4.064978 1.56353,0.937927 3.12705,-9.38e-4 4.06498,1.562587 0.93793,1.563525 0,2.501452 0.31233,4.377307 0.31233,1.875855 1.87679,2.189123 3.43938,2.501452 1.56259,0.31233 5.94083,0.937928 6.56549,-0.625597 l -1.87585,5.627565 -3.75171,1.250257 -11.880728,-6.877822 -0.625598,-3.43938 0,-6.877822"
         id="path4372"
         style="fill:#ef3d3a;fill-opacity:1;fill-rule:evenodd;stroke:none" />
      <path oryx:anchors="top left"
         d="m 71.625,27.525 c -1.548606,0.03208 -2.964646,-0.220968 -4,-0.925 -7.345473,-4.99552 -1.424684,-16.551664 2.175,-23.35 -0.308286,3.90288 -0.621088,7.799088 -0.975,11.7 -0.661708,7.27832 1.740937,6.025 8.05,6.025 0.963626,0 5.944528,-1.148104 6.3,-1.875 1.705152,-3.482528 -2.86532,-2.7238 1.95,-5.35 4.064976,-2.21632 11.267312,1.348072 9.625,6.275 -0.919168,1.095496 -4.787808,0.355608 -6.175,1.075 -2.44236,1.2662 -4.907352,2.5088 -7.35,3.775 -2.136435,1.108456 -6.193068,2.579488 -9.6,2.65 z M 69.8,3.225 c 0.07626,-0.965728 0.175634,-1.933816 0.25,-2.9 l 1.1,0.35 c -0.371488,0.7388 -0.840392,1.587672 -1.35,2.55 z"
         id="path4374"
         style="fill:#ef3d3a;fill-opacity:1;fill-rule:evenodd;stroke:none" />
      <path oryx:anchors="top left"
         d="m 78.267679,111.10157 c -8.521258,1.98465 -12.755438,-3.566 -15.338396,-9.323 -2.306364,0.559 -1.388602,3.69543 -0.806055,5.29366 1.525258,4.19441 7.671965,9.7779 12.694285,9.02099 2.161266,-0.32546 5.086005,-2.30168 3.450166,-4.99165"
         id="path4376"
         style="fill:#231f20;fill-opacity:1;fill-rule:evenodd;stroke:none" />
      <path oryx:anchors="top left"
         d="m 119.78626,101.39777 c 0.13412,-0.006 0.27012,-0.0103 0.40424,-0.0159 1.92557,-4.000265 3.59227,-8.237821 6.0215,-11.769118 -1.62731,-3.790165 -12.32249,-7.144193 -12.15742,-0.338592 2.31293,1.011086 6.30569,0.206344 8.356,1.49787 -1.18554,3.253671 -2.89632,6.02337 -2.62432,10.62578"
         id="path4378"
         style="fill:#231f20;fill-opacity:1;fill-rule:evenodd;stroke:none" />
      <path oryx:anchors="top left"
         d="m 82.630261,101.29366 c 1.827083,-3.349338 2.421729,-6.868442 5.01885,-9.399908 1.169595,-1.139582 3.444069,-2.528653 2.316681,-5.697909 -0.263558,-0.747529 -2.189123,-2.414226 -3.300567,-2.741562 -4.060288,-1.198672 -13.52135,-0.247613 -10.317389,4.814381 3.357874,-0.156634 7.871274,-2.180681 10.381168,0.256992 -1.927441,3.081092 -5.363632,9.176682 -4.098743,12.768006"
         id="path4380"
         style="fill:#231f20;fill-opacity:1;fill-rule:evenodd;stroke:none" />
      <path oryx:anchors="top left"
         d="m 118.26212,67.252522 c -6.11341,-3.927102 -12.93026,-8.197486 -22.947328,-7.207034 -2.140351,1.860848 -2.956347,6.001797 -0.876962,8.736794 1.082368,-1.860848 0.402371,-5.283346 3.418745,-5.798268 5.683845,-0.972631 12.299045,3.476897 16.387465,5.031981 2.53522,4.274135 -0.21853,5.846102 -2.50239,8.597043 -4.67557,5.636006 -10.94749,12.621689 -10.71957,21.059285 1.88992,1.370312 2.05312,-2.091579 2.32418,-2.721866 2.44143,-5.713854 8.58579,-13.021246 13.07002,-17.9116 1.10113,-1.204299 2.91414,-2.359826 3.1158,-3.156126 0.58151,-2.315743 -1.51288,-5.090132 -1.26996,-6.630209"
         id="path4382"
         style="fill:#231f20;fill-opacity:1;fill-rule:evenodd;stroke:none" />
      <path oryx:anchors="top left"
         d="m 37.66752,71.386906 c -1.916185,1.093624 -2.3723,5.910819 -4.621919,6.047756 -3.214933,0.195089 -2.628729,-6.24941 -2.615879,-10.018003 -2.212946,2.009041 -2.602092,8.194672 -0.976383,11.371433 -1.852781,0.909789 -2.680127,-1.003583 -3.707814,-1.677953 1.320789,9.594998 14.03599,4.450466 11.921995,-5.723233"
         id="path4384"
         style="fill:#231f20;fill-opacity:1;fill-rule:evenodd;stroke:none" />
      <path oryx:anchors="top left"
         d="m 122.15452,63.256951 c -2.84567,-5.416531 -6.87125,-11.381749 -15.22162,-11.555266 -0.16977,1.749235 -0.30014,4.411073 0.009,5.464365 6.38353,0.613405 10.3247,3.862386 15.21224,6.090901"
         id="path4386"
         style="fill:#231f20;fill-opacity:1;fill-rule:evenodd;stroke:none" />
      <path oryx:anchors="top left"
         d="m 82.148729,59.745351 c 5.325927,-2.800652 15.114138,-3.101726 22.353061,-2.889755 0.3883,-1.586035 0.37892,-3.545365 0.39393,-5.479372 -9.305178,-0.464274 -20.307066,1.838338 -22.746991,8.369127"
         id="path4388"
         style="fill:#231f20;fill-opacity:1;fill-rule:evenodd;stroke:none" />
      <path oryx:anchors="top left"
         d="m 81.136424,54.522971 c 3.68296,-9.247027 16.341228,-8.182479 27.015776,-7.927363 -0.4699,-1.200547 -1.48849,-2.618693 -2.75469,-3.13174 -3.42062,-1.391884 -12.855232,-2.44799 -17.603958,0.0741 -3.011685,1.601042 -4.94663,5.218628 -6.596725,7.339282 -0.796864,1.024217 -4.764766,3.640096 -0.0604,3.645724"
         id="path4390"
         style="fill:#231f20;fill-opacity:1;fill-rule:evenodd;stroke:none" />
      <path oryx:anchors="top left"
         d="M 110.85,7.725 C 109.82774,7.71692 108.74934,7.476176 107.625,6.95 107.5363,4.745688 107.39062,2.341656 107.2,-0.1 l 8.525,0 c 0.69802,1.208848 1.39718,2.421272 2.1,3.625 -1.38157,2.217824 -3.9082,4.224144 -6.975,4.2 z"
         id="path4392"
         style="fill:#81b0c4;fill-opacity:1;fill-rule:evenodd;stroke:none" />
      <path oryx:anchors="top left"
         d="m 102.33143,26.985421 c -2.2257,-1.452849 -4.121256,-3.266801 -6.258793,-4.818133 -4.740285,-0.234482 -7.327089,0.328274 -10.809614,3.05014 0.05721,0.218537 0.407061,0.120993 0.420192,0.38924 5.074187,-2.261343 11.524314,0.921045 16.648215,1.378753"
         id="path4394"
         style="fill:#f0d6b7;fill-opacity:1;fill-rule:evenodd;stroke:none" />
      <path oryx:anchors="top left"
         d="m 87.5,4.9 c -2.378504,-1.595144 -4.844472,-3.15304 -6.95,-5 l 10.325,0 c -1.032,1.748752 -2.143048,3.436488 -3.375,5 z"
         id="path4396"
         style="fill:#81b0c4;fill-opacity:1;fill-rule:evenodd;stroke:none" />
      <path oryx:anchors="top left"
         d="M 79.925,143.875 C 73.364194,143.75195 66.94907,142.66859 61.6,140.7 c -3.976344,-1.46317 -7.832252,-2.77469 -11.325,-4.825 -9.343727,-5.48594 -19.254081,-9.16153 -22.025,-20.2 -6.825579,-3.05764 -8.893656,-11.786 -8.55,-21.925 0.06669,-1.976213 1.147263,-4.466966 0.775,-6.325 -0.188711,-0.943555 -1.468477,-2.135658 -1.725,-2.75 -3.271022,-7.800743 -0.655598,-18.056848 3.125,-23.6 2.285448,-3.349336 6.083819,-6.3362 11.075,-7.125 0.197809,-2.98824 0.919465,-5.546432 2.3,-8.575 0.872742,-1.915248 4.126673,-5.356704 2.925,-7.8 C 37.570506,36.34256 32.262272,33.65704 30.5,32.6 24.55007,29.030248 20.243816,26.85524 14.75,22.9 11.196099,20.342272 5.6236944,20.002376 6.5,14.1 7.0909881,10.11756 9.3530336,5.1936 10.65,1.2 10.792621,0.762048 10.946351,0.331384 11.1,-0.1 l 6.6,0 0.4,0 49.95,0 c 4.512474,0.0032 9.032275,0.0032 13.55,0 l 9.275,0 4,0 10,0 2.325,0 18.7,0 4.05,0 0.425,0 c 1.33856,4.189864 2.67543,8.468088 4,12.9 0.97076,3.253672 2.88051,7.853152 2.45,11.225 -0.40049,3.16832 -5.34725,6.514168 -7.95,9.025 -1.44535,1.39376 -8.18388,6.508816 -8.575,8.425 -0.37986,1.853344 2.74361,6.05092 3.75,8.15 1.44347,3.006056 2.48717,6.672608 3.2,9.175 5.3021,18.639432 5.83033,44.25208 -1.75,59.575 -2.8701,5.80373 -10.88022,13.82827 -15.9,17.625 -7.39908,5.59591 -18.74032,8.08009 -29.675,7.875 z m 0.875,-5.2 c 8.860416,0.088 18.726704,-3.03487 25.4,-6.8 5.57504,-3.14581 9.67759,-9.213 13.6,-14.275 -5.50095,1.63294 -10.17852,-1.1873 -9.325,-5.725 4.60522,4.22068 12.47394,0.0412 14.8,-4.625 2.2257,-4.46266 2.20859,-11.066977 2.55,-17.7 0.82912,-16.08358 -2.94288,-32.674392 -11.025,-44.3 -2.16005,-3.104536 -3.96111,-6.487464 -7,-8.625 C 102.47667,31.482344 91.331032,26.803544 81.8,30 69.203915,34.22724 63.477063,42.614992 56.55,52.225 c 0.187586,-5.278656 3.909392,-9.611288 7.575,-13.65 3.191204,-3.52004 7.033112,-7.484568 11.175,-9.125 -3.456075,0.811304 -8.760188,1.076728 -10.2,-2.025 -8.061393,0.53556 -15.536012,1.335632 -19.35,6.8 -3.005026,4.307904 -6.055438,11.64148 -7.425,17.3 -0.279127,1.162088 -0.767241,3.64096 -0.65,4.275 0.449924,2.45456 4.820065,3.543128 3.1,6.975 -3.173571,0.03 -3.887266,-2.887056 -6.8,-3.175 -7.540092,-0.745648 -12.867531,9.96986 -12.525,16.45 0.289444,5.510324 4.953659,10.79688 11.325,10.1 4.502709,-0.49335 6.026227,-5.402382 6.9,-9.775 2.595808,-0.138813 6.347628,0.100014 7.575,2.125 -0.175861,4.942877 -2.457572,8.909494 -2.3,13.45 0.29676,8.53326 4.936822,16.24523 1.35,24.65 3.839594,8.70959 15.093578,15.57092 23.425,19.725 3.226646,1.60854 7.047538,2.30998 11.075,2.35 z M 57.7,134.4 c 0.435688,0.0243 0.825521,-0.2995 1.2,-0.7 -0.05609,-1.48286 -1.51255,-1.44854 -2.5,-1.925 -1.536982,-1.88711 -3.781461,-2.75499 -5.65,-4.825 -1.916842,-2.11971 -4.059155,-7.81971 -6.6,-8.45 -1.275019,-0.31702 -2.740619,0.2222 -3.85,0.15 -2.935431,-0.18571 -4.999332,-1.69261 -7.975,-2.125 3.842876,8.40102 15.823207,15.19941 25.175,17.85 0.0641,0.0182 0.137759,0.0215 0.2,0.025 z M 43.425,115.275 c 3.29372,-8.38507 -2.382336,-18.330822 -0.275,-27.5 0.644825,-2.807217 2.889874,-7.18027 -0.675,-7.275 0.09342,7.989266 -9.808253,13.07214 -17.275,8.375 -0.500103,6.059011 -1.380914,14.5798 2.75,19.125 3.812112,4.19723 9.079835,6.79009 15.475,7.275 z m 73.25,-78.725 c 3.65697,-2.945088 5.86903,-5.72544 9.375,-8.875 1.90305,-1.705152 5.62202,-3.742496 6,-6.5 0.21197,-1.540072 -0.72797,-5.319528 -1.075,-7.05 C 130.33462,10.959496 129.35934,7.381568 128.2,3.7 l -2.3,0 -5.725,0 c 0.13019,0.230424 0.39602,0.69396 0.525,0.925 -0.73721,1.72016 -2.54976,2.436624 -3.075,4.35 3.39811,6.415424 1.84427,26.328792 -6.825,22.125 1.21274,1.780184 4.39213,3.26088 5.875,5.45 z M 40.4,32.025 c 0.787765,0.310456 6.524957,-7.169096 7.375,-7.775 4.660281,-3.309944 10.46072,-5.943824 15.875,-8.525 0.330525,-2.484568 1.102855,-5.692096 2.45,-10 0.200546,-0.641544 0.399654,-1.341336 0.6,-2.025 l -48.6,0 -0.4,0 -1.975,0 c -1.221854,3.59556 -2.590057,7.05272 -4.15,10.4 8.694118,6.710872 18.419914,13.821568 28.825,17.925 z m 71,-4.8 c 0.74206,0.03448 1.43111,-0.113752 2.05,-0.475 1.88711,-1.099248 2.70369,-7.372048 2.85,-10.425 0.12193,-2.532408 -0.24328,-5.083768 -1.275,-6.425 -5.30492,0.155696 -10.10372,0.791336 -14.3,1.975 0.28513,1.72016 -0.22863,3.411 0.2,4.65 1.16959,0.842256 3.107,0.827096 4.875,1.025 -1.52883,0.75128 -3.66076,1.034264 -5.425,0.6 -0.0413,1.193984 -0.57548,1.940824 -0.9,2.875 2.51658,0.898216 7.91792,6.01396 11.925,6.2 z m -9.075,-0.25 c -2.2257,-1.452848 -4.112464,-3.248664 -6.25,-4.8 -4.740288,-0.23448 -7.317472,0.328136 -10.8,3.05 0.0572,0.218536 0.386872,0.106752 0.4,0.375 5.074184,-2.261344 11.526096,0.917288 16.65,1.375 z M 52.35,26.9 C 54.995987,25.0626 60.105444,25.508752 64,24.825 64.203343,23.57756 63.18171,21.93892 63.2,20.2 59.920911,20.401656 49.643141,24.151872 52.35,26.9 z M 70.2,25.85 c 0.283196,0.0056 0.598648,-0.01256 0.925,-0.07496 4.212607,-0.8038 9.113544,-2.742936 12.375,-4.525 1.993096,-1.089872 3.12612,-2.442392 6.15,-2.675 -0.01408,-0.401432 -0.009,-0.819816 -0.02496,-1.225 -1.656376,-1.087992 -4.332296,-1.06052 -6.15,-1.975 2.679656,-0.11724 4.774792,-0.765208 6.6,-1.675 -0.04032,-1.011088 -0.08561,-2.013912 -0.125,-3.025 -2.962968,-2.0284 -5.673912,-5.020088 -9.125,-6.975 -0.08515,-0.04824 -0.163928,-0.10304 -0.25,-0.15 -1.690145,-0.921792 -7.626806,-3.29416 -9.425,-2.875 -1.01737,0.236264 -1.093315,1.48496 -1.5,2.675 -0.0346,0.101768 -0.08694,0.243504 -0.125,0.35 -0.914946,2.56032 -2.757963,6.417072 -2.925,10.1 -0.207781,4.542504 -0.647942,11.963064 3.6,12.05 z m 24.55,-6.325 c 4.366344,0.03032 4.311408,-8.72164 -2.075,-6.725 -0.463336,2.639328 -1.00728,3.372392 -0.8,5.675 1.099864,0.733344 2.066416,1.044384 2.875,1.05 z M 97.7,10.35 c 0.119456,0.0064 0.2286,0.01304 0.35,0 2.22664,-0.23636 3.97324,-3.301656 7.15,-3.1 -0.0727,-1.18332 -0.12656,-2.364704 -0.175,-3.55 l -12.275,0 c -0.77328,1.238968 -1.60948,2.42168 -2.525,3.525 0.589952,0.624656 1.121296,1.310336 1.7,1.95 2.367976,-0.990096 3.983208,1.083112 5.775,1.175 z m 13.1,-2.625 c 3.01161,0.05096 5.48678,-1.864776 6.9,-4.025 l -10.25,0 c 0.0665,1.118608 0.13291,2.204008 0.175,3.25 1.10159,0.515536 2.17113,0.758 3.175,0.775 z M 87.5,4.9 c 0.307992,-0.39088 0.606472,-0.794584 0.9,-1.2 l -2.7,0 c 0.601432,0.401184 1.202504,0.799288 1.8,1.2 z"
         id="path4398"
         style="fill:#231f20;fill-opacity:1;fill-rule:evenodd;stroke:none" />
      <path oryx:anchors="top left"
         d="m 73.673992,57.379898 c 0.411469,0.547749 2.673844,1.379691 5.839349,-0.144441 0,0 -3.75171,-0.625598 -3.439568,-6.880636 l -1.563337,0.313268 c 0,0 -1.615674,5.671647 -0.836444,6.711809"
         id="path4400"
         style="fill:#f7e4cd;fill-opacity:1;fill-rule:evenodd;stroke:none" />
      <path oryx:anchors="top left"
         d="m 101.08586,3.616959 c 0,-0.9492764 -0.77004,-1.7190334 -1.72016,-1.7190334 -0.949182,0 -1.719221,0.769757 -1.719221,1.7190334 0,0.9491825 0.770039,1.7201589 1.719221,1.7201589 0.95012,0 1.72016,-0.7709764 1.72016,-1.7201589"
         id="path4402"
         style="fill:#1d1919;fill-opacity:1;fill-rule:evenodd;stroke:none" />
    </g>
  </g>
</svg>